# xmcd CD database file
#
# Track frame offsets:
#	150
#	19572
#	38460
#	55964
#	77460
#	94604
#	108709
#	124360
#	142122
#	158143
#
# Disc length: 2384 seconds
#
# Revision: 0
# Processed by: cddbd v1.5.1PL0 Copyright (c) Steve Scherf et al.
# Submitted via: CDex 1.51
#
DISCID=7a094e0a
DTITLE=Ray, Temple - Restless
DYEAR=1998
DGENRE=Blues
TTITLE0=More Than Anything
TTITLE1=Not The One 
TTITLE2=Restless
TTITLE3=Nine Faded Roses
TTITLE4=Unspeakable Truth
TTITLE5=Sticks and Stones
TTITLE6=I'll Fade Away
TTITLE7=Separate Sides Of The River 
TTITLE8=Everything
TTITLE9=Sleep
EXTD=YEAR: 1998
EXTT0=
EXTT1=
EXTT2=
EXTT3=
EXTT4=
EXTT5=
EXTT6=
EXTT7=
EXTT8=
EXTT9=
PLAYORDER=
